<svg version="1.1" id="Layer_1" xmlns="http://www.w3.org/2000/svg" xmlns:xlink="http://www.w3.org/1999/xlink" x="0px" y="0px"
	 width="100%" viewBox="0 0 240 240" enable-background="new 0 0 240 240" xml:space="preserve">
<path fill="#000000" opacity="1.000000" stroke="none" 
	d="
M147.965424,164.025848 
	C147.359451,161.669540 148.224380,159.918472 149.926620,158.244095 
	C157.765213,150.533844 165.429398,142.644897 173.326706,134.996185 
	C179.026459,129.475876 185.405792,129.074768 191.854523,133.702377 
	C198.843796,138.717911 205.689255,143.933807 213.669983,149.858566 
	C213.669983,141.008957 213.722610,133.433731 213.647385,125.859764 
	C213.610733,122.168167 214.548874,118.933617 217.361282,116.430695 
	C223.558350,110.915588 233.127258,113.709740 235.292755,121.759750 
	C235.888550,123.974548 236.049728,126.362274 236.054581,128.671387 
	C236.106140,153.161484 236.131897,177.651871 236.069962,202.141907 
	C236.024689,220.049759 224.577133,231.340317 206.600876,231.342636 
	C155.288055,231.349258 103.975235,231.348282 52.662411,231.338867 
	C32.748634,231.335220 22.106405,220.580231 22.077124,200.267120 
	C22.024288,163.615189 21.951952,126.962700 22.104122,90.311348 
	C22.171850,73.998329 21.100393,57.646339 22.720335,41.377472 
	C24.043678,28.087294 34.904129,17.950178 48.249180,17.804504 
	C74.901970,17.513567 101.560349,17.646507 128.215851,17.750837 
	C135.350525,17.778763 140.392471,22.816113 140.234756,29.134312 
	C140.072083,35.651707 134.974365,40.158039 127.271805,40.180252 
	C102.948418,40.250416 78.624672,40.194645 54.301064,40.192413 
	C45.114693,40.191570 44.350540,40.947563 44.348778,50.186733 
	C44.341625,87.671753 44.339176,125.156776 44.369297,162.641769 
	C44.370583,164.244019 43.896900,165.941757 45.264023,168.121811 
	C51.983326,162.031845 58.583763,156.075577 65.154816,150.087051 
	C72.417931,143.467819 79.599991,136.758606 86.917618,130.200470 
	C93.933846,123.912476 100.274727,123.698044 107.441086,129.703476 
	C120.841743,140.933273 134.107544,152.323990 147.898926,164.092865 
	C149.853760,165.870941 151.314911,167.232147 152.828766,168.531952 
	C159.273239,174.065247 165.747940,179.563416 172.177246,185.114197 
	C173.753891,186.475433 175.245499,188.101532 173.265228,190.144867 
	C171.465897,192.001526 169.938477,190.439728 168.490997,189.340973 
	C167.829269,188.838638 167.237183,188.245407 166.603668,187.704926 
	C145.696350,169.868546 124.804893,152.013504 103.866325,134.213882 
	C99.202782,130.249466 95.408188,130.028809 91.420601,133.676926 
	C76.425743,147.395279 61.540237,161.233124 46.584045,174.993896 
	C44.989616,176.460907 44.304649,178.132309 44.323425,180.284256 
	C44.387383,187.615585 44.344540,194.947784 44.360958,202.279602 
	C44.371044,206.782227 46.543026,208.918503 51.152981,208.915176 
	C103.142685,208.877686 155.132446,208.886139 207.122147,208.926376 
	C211.752563,208.929947 213.732208,206.842148 213.697784,202.219421 
	C213.596039,188.556213 213.571060,174.890671 213.731979,161.228577 
	C213.770172,157.986420 212.510056,155.990295 210.017242,154.183838 
	C203.408051,149.394409 196.918549,144.439545 190.391998,139.536438 
	C184.110031,134.817078 181.138565,134.931244 175.610748,140.409531 
	C168.509674,147.446960 161.442535,154.520615 154.477615,161.692154 
	C152.592270,163.633423 150.785172,165.044189 147.965424,164.025848 
z"/>
<path fill="#000000" opacity="1.000000" stroke="none" 
	d="
M195.664246,91.652214 
	C195.640961,73.254417 195.640961,55.322124 195.640961,37.389828 
	C195.244568,37.188862 194.848190,36.987896 194.451797,36.786930 
	C190.011810,41.139492 185.566162,45.486320 181.134155,49.847012 
	C178.877625,52.067234 176.666473,54.333855 174.394836,56.538330 
	C172.987686,57.903881 171.402237,58.974304 169.702072,57.042126 
	C168.206314,55.342251 169.363739,53.917839 170.563095,52.704288 
	C175.482010,47.727085 180.444412,42.792870 185.391464,37.843506 
	C188.571838,34.661686 191.796448,31.522625 194.919510,28.285568 
	C197.082947,26.043180 199.035828,25.912174 201.296066,28.204090 
	C209.251602,36.271156 217.292603,44.253883 225.270035,52.299492 
	C226.684723,53.726288 228.389893,55.393372 226.220901,57.342735 
	C224.318954,59.052113 222.751740,57.360981 221.523346,56.094967 
	C215.272476,49.652725 209.109314,43.125393 202.986374,36.702232 
	C200.566544,38.444260 201.251648,40.070721 201.245865,41.420277 
	C201.180206,56.749264 201.195053,72.078590 201.177277,87.407799 
	C201.175537,88.906052 201.191132,90.413826 201.034286,91.899826 
	C200.866638,93.488258 200.174545,94.912300 198.374466,95.024216 
	C196.475952,95.142273 195.836777,93.781822 195.664246,91.652214 
z"/>
</svg>